<?xml version="1.0" encoding="UTF-8" standalone="no"?>
<svg width="159px" height="68px" viewBox="0 0 159 68" version="1.1" xmlns="http://www.w3.org/2000/svg" xmlns:xlink="http://www.w3.org/1999/xlink" xmlns:sketch="http://www.bohemiancoding.com/sketch/ns">
    <!-- Generator: Sketch 3.3.2 (12043) - http://www.bohemiancoding.com/sketch -->
    <title>favful-logo-cta</title>
    <desc>Created with Sketch.</desc>
    <defs></defs>
    <g id="Page-1" stroke="none" stroke-width="1" fill="none" fill-rule="evenodd" sketch:type="MSPage">
        <g id="favful-logo-cta" sketch:type="MSLayerGroup" fill="#B04061">
            <g id="Imported-Layers" sketch:type="MSShapeGroup">
                <path d="M129.236526,46.5778153 C129.236526,49.1855743 129.76333,51.4902008 130.465471,51.9752129 C130.992011,52.339245 131.870018,53.3095422 132.045355,53.7339277 C132.279402,54.2798394 133.157409,54.7651245 134.210752,54.8863775 C134.152042,54.5829719 134.152042,54.5223454 134.152042,53.1276627 C134.152042,48.0333976 135.907792,40.1492209 139.184979,30.6884819 C143.047151,19.590008 147.436127,11.4029719 153.522143,3.94345382 C152.878448,2.91253012 148.840674,0.486650602 146.967769,0.122618474 C142.929995,5.21688353 138.71662,14.2532369 133.917995,27.8379438 C130.933565,36.3283855 129.236526,43.0603855 129.236526,46.5778153 L129.236526,46.5778153 Z M116.926183,49.1249478 C118.740378,50.3983775 121.432315,51.4902008 122.485659,51.4902008 C122.485659,51.4902008 122.719706,51.4295743 122.719706,51.2474217 C122.719706,50.459004 121.432315,49.1249478 121.432315,45.6681446 C121.432315,39.3001767 125.938182,32.5078233 128.805721,25.4120643 C128.10358,24.5023936 125.294487,23.4714699 123.24651,23.4714699 C120.613018,26.0792289 119.384073,29.5966586 118.681932,31.5981526 C117.394541,35.1762088 114.527002,38.8757912 112.946855,41.1195181 C109.728378,45.6681446 108.14823,47.6693655 106.977995,48.1546506 C106.860839,48.0333976 106.568346,47.6693655 106.568346,47.0628273 C106.568346,44.9403534 108.265386,39.4214297 109.025972,37.6020884 C112.537206,28.9903936 115.755948,24.3811406 116.458089,23.5927229 C115.287854,22.1980402 112.595652,21.712755 111.249815,21.712755 C106.334299,25.4120643 102.17937,35.661494 100.774823,41.7866827 C100.423621,43.4847711 100.306729,44.6978474 100.306729,46.9415743 C100.950425,49.7921124 104.227612,51.5508273 106.685238,51.6720803 C107.212042,51.6114538 108.20694,50.8836627 109.201574,49.7921124 C110.488964,48.2152771 114.702604,41.9685622 115.346035,42.0291888 C115.170698,42.5751004 115.053542,43.3028916 115.053542,44.2125622 C115.053542,45.6075181 115.46319,47.851245 116.926183,49.1249478 L116.926183,49.1249478 Z M84.8363544,67.9857992 C86.0652996,61.1328193 90.7467686,45.4253655 96.5987372,27.2316787 L103.035956,27.5954378 C102.977245,26.0792289 102.626307,24.3811406 102.275104,24.0173815 L97.3595883,24.199261 C100.695221,13.8288514 104.732995,6.67246586 107.307776,6.67246586 C107.073729,8.2493012 107.015284,8.79521285 107.015284,9.2802249 C107.015284,10.1898956 107.132439,10.6145542 107.424932,11.3423454 C107.600533,12.13049 107.717425,12.9191807 107.776135,13.8288514 C107.83458,15.1022811 108.010182,15.5875663 108.478276,15.5875663 C109.531619,14.7385221 110.584963,12.7976546 111.579861,9.76551004 C112.047955,7.88554217 112.808542,5.76279518 113.452502,4.61061847 C112.691651,4.06470683 112.047955,3.8222008 111.638307,3.8222008 C110.81901,3.8222008 109.414464,4.36783936 108.712323,4.913751 C108.244229,4.913751 107.307776,4.73187149 106.371588,4.73187149 C99.9928155,4.73187149 93.731463,12.4338956 90.0446276,24.6845462 C87.177089,25.1089317 84.426706,25.7154699 83.6658549,26.0186024 C83.6658549,26.5038876 83.9001664,27.1707791 84.192659,27.4741847 C85.5972055,27.2316787 86.8261507,27.1707791 89.4009322,27.1707791 C83.8414563,47.4874859 82.3784641,54.704498 81.0910734,63.0127871 C82.3200185,63.7405783 82.9052683,64.528996 83.0808696,65.6814458 C83.256471,66.772996 83.8414563,67.5614137 84.8363544,67.9857992 L84.8363544,67.9857992 Z M59.2421902,28.9903936 C59.2421902,30.4459759 59.4177915,33.4781205 59.4177915,36.146506 C59.4177915,45.3041124 57.311104,47.6693655 57.311104,49.6705863 C57.311104,51.1261687 58.5400491,52.581751 60.5880266,53.3701687 C65.8550099,50.0346185 69.2490882,46.6990683 72.9943692,42.1504418 C76.6809402,37.7839679 82.8256658,29.7788112 83.1181585,22.8649317 C82.6500645,22.3192932 80.4846668,21.470249 79.4900332,21.470249 C78.027041,27.2316787 75.451995,32.6897028 73.5793545,36.025253 C70.8289716,40.755759 66.7911979,46.0319036 64.508909,47.851245 C64.3920177,47.851245 64.3333076,47.851245 64.3333076,47.608739 C65.6206984,43.3028916 65.7962998,39.3001767 65.9134555,33.781253 C66.0303468,28.3232289 66.1475025,27.2923052 66.7911979,24.6239197 C66.1475025,24.0173815 64.5673546,23.7746024 63.4555652,23.7746024 C59.8858856,23.7746024 59.2421902,26.0186024 59.2421902,28.9903936 L59.2421902,28.9903936 Z M50.0334321,25.9579759 C48.336393,29.5966586 45.9956585,34.1452851 44.3570649,36.9955502 C40.1436899,44.2731888 37.3345969,47.6693655 35.0525724,48.1546506 C34.5257683,47.972498 34.2332757,47.5481124 34.2332757,46.6990683 C34.2332757,39.2395502 41.8991747,28.5051084 48.1607916,27.4741847 C47.9851902,25.9579759 45.3519631,23.1077108 43.7718152,22.6830522 C37.4517526,23.0470843 29.0250025,35.4187149 29.0250025,44.4550683 C29.0250025,48.6396627 31.0145343,51.6720803 33.8820729,51.7933333 C37.5101982,51.1867952 42.6600258,45.1222329 45.8200571,37.7233414 C44.3570649,41.6654297 43.5962138,44.9403534 43.5962138,47.1840803 C43.5962138,50.216498 44.6495576,51.6720803 46.7562451,51.6720803 C47.9267446,51.6720803 49.6237838,51.1867952 50.5602363,50.5805301 C49.5068925,49.973992 49.038534,48.3971566 49.038534,46.1531566 C49.038534,42.0291888 51.2039316,34.8730763 54.3639629,28.0807229 C54.4224086,27.2923052 51.6720257,25.9579759 50.0334321,25.9579759 L50.0334321,25.9579759 Z M23.9711739,25.1695582 C22.0985333,25.1695582 19.1725491,25.5335904 16.129409,26.0186024 C20.5183855,15.7694458 21.6304393,13.3435663 22.5666274,11.8879839 C25.5510573,11.4029719 28.8282443,10.9783133 32.7491267,10.9783133 C33.9193618,10.9783133 35.3239083,11.0389398 37.7817985,11.2817189 C37.0209474,7.76401606 35.5579553,5.70216867 33.7437604,5.70216867 C31.1105332,5.70216867 23.4443698,7.0362249 13.6717832,7.0362249 C11.3307842,7.0362249 10.1018391,6.97559839 8.63884695,6.73309237 C8.34635431,7.33963052 8.1123073,8.43118072 8.1123073,9.03771888 C8.1123073,11.4029719 10.1018391,12.9798072 13.0865335,12.9798072 L13.3790261,12.9798072 C12.384128,17.8919197 11.213893,21.1062169 8.93160406,27.4135582 C6.35682251,28.0200964 4.4254719,28.5657349 4.01608798,28.9903936 C4.48418199,30.3244498 5.65441703,31.4162731 7.23456491,31.9619116 C3.02118985,43.121012 1.32388624,47.4874859 0.153651199,50.0346185 C1.96784608,53.1276627 3.89893224,54.7651245 6.53215943,55.3713896 C7.76110456,48.093751 9.98494782,40.6951325 13.4961819,32.1440643 C16.6562132,31.7194056 20.3427841,30.8703614 23.7955725,30.8703614 C25.4926117,30.8703614 26.7215568,30.9916145 27.7164549,31.173494 C27.9505019,30.6884819 28.0089476,29.9000643 28.0089476,29.2935261 C28.0089476,26.6857671 26.4875098,25.1695582 23.9711739,25.1695582 L23.9711739,25.1695582 Z" id="Fill-1"></path>
            </g>
            <path d="M150.933333,51.8095238 C150.834,51.7219047 150.000002,51.2806347 147.823339,49.6939674 C141.243352,44.897775 142.712682,41.5625355 144.21868,40.0876143 C145.356677,38.9726932 146.850008,38.5771375 148.386005,39.0590425 C149.403336,39.3777728 150.251335,40.1022175 150.746,41.0272972 C150.819334,41.1650751 150.931333,41.430472 150.931333,41.430472 C150.934667,41.430472 151.047333,41.1650751 151.120666,41.0272972 C151.614665,40.1022175 152.46333,39.3777728 153.480662,39.0590425 C155.015992,38.5771375 156.509989,38.9726932 157.647987,40.0876143 C158.707585,41.1253477 159.749032,43.0839994 157.981538,45.8244713 C157.236908,46.979008 155.99373,48.2723069 154.043327,49.6939674 C151.866665,51.2806347 151.032666,51.7219047 150.933333,51.8095238 Z" id="Imported-Layers-11" sketch:type="MSShapeGroup"></path>
        </g>
    </g>
</svg>